<svg width="149" height="155" viewBox="0 0 149 155" fill="none" xmlns="http://www.w3.org/2000/svg">
<rect x="0.5" y="0.097168" width="148" height="148" rx="41.0443" fill="#ECFDF5"/>
<g filter="url(#filter0_dd_307_8213)">
<rect x="12.5" y="12.0972" width="124" height="124" rx="41.0443" fill="#83CD29" shape-rendering="crispEdges"/>
<path d="M74.4999 115.989C73.2763 115.99 72.0742 115.692 71.0144 115.127L59.923 109.062C58.2677 108.206 59.0743 107.904 59.6217 107.727C61.3822 107.225 63.0678 106.521 64.6394 105.633C64.771 105.576 64.9159 105.552 65.0604 105.562C65.205 105.572 65.3444 105.616 65.4654 105.69L73.9881 110.367C74.1468 110.444 74.3236 110.485 74.5032 110.485C74.6827 110.485 74.8595 110.444 75.0182 110.367L108.254 92.646C108.409 92.5599 108.538 92.438 108.627 92.2922C108.716 92.1464 108.763 91.9816 108.762 91.8142V56.3671C108.762 56.197 108.715 56.0297 108.625 55.8814C108.535 55.7331 108.405 55.6087 108.247 55.5203L75.0117 37.8148C74.855 37.7332 74.6782 37.6904 74.4983 37.6904C74.3184 37.6904 74.1416 37.7332 73.9849 37.8148L40.7688 55.5263C40.6104 55.6129 40.4788 55.7357 40.3869 55.883C40.295 56.0304 40.2458 56.1971 40.2441 56.3671V91.7992C40.2445 91.9663 40.2931 92.1303 40.3847 92.2743C40.4763 92.4184 40.6078 92.5374 40.7656 92.6191L49.8811 97.4786C54.821 99.7588 57.8466 97.0717 57.8466 94.3726V59.3894C57.8466 59.1513 57.9489 58.923 58.1312 58.7546C58.3134 58.5863 58.5606 58.4917 58.8184 58.4917H63.0295C63.2872 58.4917 63.5344 58.5863 63.7166 58.7546C63.8989 58.923 64.0013 59.1513 64.0013 59.3894V94.3756C64.0013 100.465 60.4121 103.951 54.1602 103.951C51.4631 103.994 48.8082 103.328 46.5057 102.03L37.7692 97.4008C36.7086 96.8303 35.8286 96.0127 35.217 95.0298C34.6054 94.0469 34.2836 92.9329 34.2837 91.7992V56.3671C34.2806 55.2316 34.601 54.1154 35.2128 53.1305C35.8247 52.1457 36.7063 51.3269 37.7692 50.7565L71.0079 33.03C72.0786 32.4889 73.2795 32.2053 74.4999 32.2053C75.7204 32.2053 76.9212 32.4889 77.9919 33.03L111.227 50.7565C112.288 51.326 113.168 52.1423 113.78 53.1242C114.392 54.1061 114.715 55.2191 114.716 56.3522V91.7992C114.714 92.9329 114.391 94.0465 113.779 95.0292C113.167 96.0119 112.287 96.8295 111.227 97.4008L77.9919 115.127C76.9302 115.693 75.7257 115.99 74.4999 115.989Z" fill="white"/>
<path d="M68.1948 79.9427C68.1948 79.7046 68.2972 79.4763 68.4795 79.3079C68.6617 79.1396 68.9089 79.045 69.1666 79.045H73.4652C73.6949 79.0457 73.9169 79.1215 74.0918 79.259C74.2667 79.3965 74.3833 79.5868 74.4208 79.7961C75.0687 83.8387 77.0123 85.8765 85.8005 85.8765C92.8007 85.8765 95.7841 84.4132 95.7841 80.981C95.7841 79.0031 94.9387 77.5339 84.0578 76.5494C74.9618 75.7176 69.3383 73.8563 69.3383 67.1416C69.3383 60.9475 74.9909 57.252 84.4659 57.252C95.1136 57.252 100.384 60.6662 101.051 67.9914C101.061 68.1137 101.044 68.2366 101.001 68.3526C100.958 68.4686 100.889 68.5751 100.8 68.6657C100.71 68.7562 100.602 68.8289 100.481 68.8792C100.359 68.9294 100.228 68.9562 100.096 68.9579H95.7679C95.5508 68.9551 95.341 68.8852 95.1719 68.7594C95.0028 68.6336 94.8842 68.459 94.835 68.2637C93.8017 64.0116 91.2718 62.6531 84.4692 62.6531C76.8244 62.6531 75.9368 65.1128 75.9368 66.956C75.9368 69.1883 76.9863 69.8406 87.3068 71.1004C97.5204 72.3482 102.373 74.1137 102.373 80.7446C102.373 87.4355 96.3348 91.2656 85.8038 91.2656C71.243 91.2836 68.1948 85.1164 68.1948 79.9427Z" fill="white"/>
</g>
<defs>
<filter id="filter0_dd_307_8213" x="3.37904" y="12.0972" width="142.242" height="142.242" filterUnits="userSpaceOnUse" color-interpolation-filters="sRGB">
<feFlood flood-opacity="0" result="BackgroundImageFix"/>
<feColorMatrix in="SourceAlpha" type="matrix" values="0 0 0 0 0 0 0 0 0 0 0 0 0 0 0 0 0 0 127 0" result="hardAlpha"/>
<feOffset dy="9.12096"/>
<feGaussianBlur stdDeviation="4.56048"/>
<feComposite in2="hardAlpha" operator="out"/>
<feColorMatrix type="matrix" values="0 0 0 0 0.513726 0 0 0 0 0.803922 0 0 0 0 0.160784 0 0 0 0.2 0"/>
<feBlend mode="normal" in2="BackgroundImageFix" result="effect1_dropShadow_307_8213"/>
<feColorMatrix in="SourceAlpha" type="matrix" values="0 0 0 0 0 0 0 0 0 0 0 0 0 0 0 0 0 0 127 0" result="hardAlpha"/>
<feOffset dy="9.12096"/>
<feGaussianBlur stdDeviation="4.56048"/>
<feComposite in2="hardAlpha" operator="out"/>
<feColorMatrix type="matrix" values="0 0 0 0 0.513726 0 0 0 0 0.803922 0 0 0 0 0.160784 0 0 0 0.2 0"/>
<feBlend mode="normal" in2="effect1_dropShadow_307_8213" result="effect2_dropShadow_307_8213"/>
<feBlend mode="normal" in="SourceGraphic" in2="effect2_dropShadow_307_8213" result="shape"/>
</filter>
</defs>
</svg>
