<svg width="148" height="155" viewBox="0 0 148 155" fill="none" xmlns="http://www.w3.org/2000/svg">
<rect y="0.097168" width="148" height="148" rx="41.0443" fill="#EFF6FF"/>
<g filter="url(#filter0_dd_307_8220)">
<rect x="12" y="12.0972" width="124" height="124" rx="41.0443" fill="#00618A" shape-rendering="crispEdges"/>
<path d="M25.8242 95.3104H29.0742V81.8622L34.1057 93.5859C34.6994 95.0049 35.512 95.507 37.1056 95.507C38.6995 95.507 39.4807 95.0049 40.0746 93.5859L45.1059 81.8622V95.3104H48.3561V81.8842C48.3561 80.5744 47.8559 79.9411 46.8248 79.6139C44.356 78.8061 42.6996 79.5046 41.9495 81.2512L37.0119 92.8216L32.2306 81.2512C31.5119 79.5046 29.8243 78.8061 27.3556 79.6139C26.3242 79.9411 25.8242 80.5744 25.8242 81.8842V95.3104Z" fill="white"/>
<path d="M51.0576 84.3637H54.3067V91.7727C54.2763 92.1753 54.4299 93.1199 56.2104 93.1493C57.1187 93.1642 63.2207 93.1493 63.2777 93.1493V84.3276H66.5343C66.5492 84.3276 66.531 96.3579 66.5313 96.4091C66.5492 99.3761 63.018 100.021 61.3904 100.07H51.1282V97.7794C51.1462 97.7794 61.3828 97.7815 61.4086 97.7788C63.5004 97.5473 63.2534 96.4579 63.2531 96.0911V95.198H56.3452C53.1314 95.1669 51.0847 93.6972 51.0594 92.0063C51.0571 91.8496 51.1287 84.4377 51.0576 84.3637Z" fill="white"/>
<path d="M69.04 95.3087H78.3838C79.4776 95.3087 80.5403 95.0687 81.3841 94.6536C82.7902 93.9771 83.4778 93.0604 83.4778 91.8593V89.3707C83.4778 88.3882 82.6966 87.4711 81.1652 86.8601C80.3525 86.5323 79.3526 86.3578 78.3838 86.3578H74.4461C73.1339 86.3578 72.5088 85.9431 72.3526 85.0263C72.3212 84.917 72.3212 84.8295 72.3212 84.7205V83.1707C72.3212 83.0832 72.3212 82.9957 72.3526 82.8867C72.5088 82.1882 72.8527 81.9914 74.0088 81.8824C74.1027 81.8824 74.2274 81.8604 74.3213 81.8604H83.6028V79.5903H74.4775C73.165 79.5903 72.4774 79.6776 71.8525 79.8738C69.9149 80.5071 69.0712 81.5114 69.0712 83.258V85.2445C69.0712 86.7729 70.7276 88.0827 73.5087 88.3882C73.8215 88.4099 74.1338 88.4316 74.4461 88.4316H77.8212C77.9465 88.4316 78.0715 88.4316 78.1651 88.4537C79.1964 88.5412 79.6338 88.7374 79.9466 89.1304C80.1339 89.3267 80.1964 89.5235 80.1964 89.7417V91.7283C80.1964 91.9685 80.0402 92.2743 79.7279 92.5361C79.4465 92.7981 78.9778 92.9728 78.3527 93.0166C78.2277 93.0166 78.134 93.0383 78.009 93.0383H69.04V95.3087Z" fill="#E48E00"/>
<path d="M103.75 91.3573C103.75 93.6931 105.406 95.0032 108.75 95.2652C109.062 95.2869 109.375 95.3087 109.687 95.3087H118.156V93.0383H109.625C107.718 93.0383 107 92.5361 107 91.3355V79.5903H103.75V91.3573Z" fill="#E48E00"/>
<path d="M85.5498 91.477V83.3827C85.5498 81.3264 86.9278 80.0792 89.652 79.6854C89.9339 79.6419 90.2472 79.6199 90.5289 79.6199H96.698C97.0111 79.6199 97.2933 79.6419 97.6063 79.6854C100.331 80.0792 101.709 81.3264 101.709 83.3827V91.477C101.709 93.1453 101.123 94.0382 99.7748 94.6201L102.976 97.648H99.2025L96.6125 95.1982L94.005 95.3714H90.5289C89.9339 95.3714 89.3078 95.2836 88.6187 95.0868C86.552 94.4962 85.5498 93.3585 85.5498 91.477ZM89.0578 91.2802C89.0578 91.3897 89.0889 91.499 89.1203 91.6303C89.3081 92.5709 90.1536 93.096 91.4375 93.096H94.3902L91.6779 90.5302H95.4516L97.8172 92.7679C98.253 92.5245 98.54 92.1522 98.6402 91.674C98.6713 91.5648 98.6713 91.4552 98.6713 91.346V83.5798C98.6713 83.4922 98.6713 83.3827 98.6402 83.2732C98.4521 82.3983 97.6066 81.8952 96.3541 81.8952H91.4375C89.9972 81.8952 89.0578 82.5516 89.0578 83.5798V91.2802Z" fill="#E48E00"/>
<path d="M119.278 78.9394C117.28 78.8827 115.754 79.0773 114.449 79.6539C114.078 79.8178 113.487 79.822 113.427 80.3089C113.63 80.5327 113.662 80.8669 113.824 81.1421C114.135 81.6704 114.661 82.3782 115.131 82.7495C115.643 83.155 116.172 83.5888 116.721 83.9399C117.699 84.5647 118.791 84.9214 119.732 85.5473C120.287 85.9162 120.838 86.3808 121.379 86.7971C121.647 87.0029 121.827 87.323 122.175 87.4519C122.175 87.4323 122.175 87.4124 122.175 87.3925C121.992 87.1488 121.945 86.8136 121.777 86.559C121.531 86.3012 121.285 86.0432 121.038 85.7852C120.316 84.7809 119.4 83.8988 118.425 83.1661C117.648 82.5816 115.909 81.7921 115.585 80.8446C115.566 80.8247 115.547 80.8048 115.528 80.7849C116.079 80.72 116.724 80.511 117.233 80.3683C118.087 80.1283 118.85 80.1904 119.732 79.9517C120.13 79.8326 120.527 79.7133 120.925 79.5945C120.925 79.5149 120.925 79.4359 120.925 79.3563C120.479 78.8769 120.161 78.2425 119.675 77.8086C118.403 76.6736 117.015 75.5396 115.585 74.5941C114.792 74.0696 113.812 73.7288 112.972 73.2844C112.689 73.135 112.193 73.0573 112.006 72.8081C111.565 72.2184 111.324 71.471 110.984 70.7842C110.271 69.3453 109.57 67.7739 108.939 66.2601C108.508 65.2278 108.226 64.2098 107.689 63.2837C105.11 58.8399 102.333 56.1576 98.0318 53.5212C97.1167 52.9605 96.0148 52.7391 94.8504 52.4498C94.2258 52.4102 93.6006 52.3703 92.9758 52.3307C92.5944 52.1636 92.1976 51.6747 91.8397 51.4377C90.4149 50.4945 86.7601 48.4429 85.7048 51.1402C85.0384 52.8427 86.7006 54.504 87.2951 55.3667C87.7125 55.9719 88.2467 56.6504 88.5448 57.331C88.741 57.7783 88.7749 58.2269 88.9427 58.7003C89.3557 59.8662 89.7148 61.1347 90.2491 62.2123C90.5191 62.7574 90.8168 63.3319 91.1582 63.8195C91.3675 64.1186 91.7261 64.2504 91.7828 64.7125C91.432 65.2268 91.412 66.0252 91.2148 66.6768C90.327 69.6103 90.6619 73.2564 91.9533 75.4275C92.3497 76.0939 93.283 77.5233 94.5664 76.9751C95.6891 76.4959 95.4383 75.0111 95.7594 73.7011C95.8321 73.404 95.7875 73.1857 95.9298 72.9868C95.9298 73.0065 95.9298 73.0265 95.9298 73.0464C96.2707 73.7607 96.6116 74.4749 96.9525 75.1891C97.7092 76.4662 99.0523 77.801 100.19 78.7016C100.781 79.1686 101.245 79.9761 102.008 80.2492C102.008 80.2293 102.008 80.2097 102.008 80.1896C101.989 80.1896 101.97 80.1896 101.951 80.1896C101.804 79.948 101.572 79.848 101.383 79.6539C100.939 79.1972 100.444 78.6294 100.077 78.1062C99.0416 76.6336 98.1268 75.0217 97.2934 73.344C96.8953 72.543 96.5493 71.6591 96.2137 70.8438C96.0844 70.5294 96.0859 70.0542 95.8164 69.8913C95.4489 70.4887 94.9076 70.9717 94.6234 71.6772C94.1688 72.8048 94.1101 74.1799 93.9418 75.6059C93.8421 75.6433 93.8864 75.6176 93.8279 75.6653C93.0368 75.4654 92.7586 74.6119 92.4648 73.8798C91.721 72.0281 91.5828 69.0465 92.2373 66.9151C92.4066 66.3637 93.1719 64.6267 92.8622 64.1173C92.7144 63.609 92.2264 63.315 91.9533 62.9266C91.6155 62.4464 91.2781 61.8142 91.0443 61.2598C90.4356 59.816 90.1514 58.1952 89.5106 56.7359C89.2044 56.0382 88.6863 55.3322 88.2609 54.712C87.7899 54.0249 87.2625 53.5189 86.8975 52.6878C86.7677 52.3926 86.5913 51.9199 86.7839 51.6164C86.8451 51.4116 86.9314 51.3261 87.1248 51.2593C87.4543 50.9931 88.372 51.3479 88.7152 51.4973C89.6263 51.8938 90.3865 52.2714 91.1582 52.807C91.5287 53.0644 91.9032 53.5621 92.3509 53.6999C92.5213 53.6999 92.6918 53.6999 92.8622 53.6999C93.6619 53.8926 94.5578 53.7597 95.3049 53.9975C96.6255 54.4181 97.8089 55.0722 98.8837 55.7834C102.158 57.9498 104.835 61.0337 106.666 64.7125C106.961 65.3047 107.089 65.8701 107.348 66.4984C107.872 67.7653 108.531 69.069 109.052 70.3079C109.572 71.5441 110.079 72.7916 110.813 73.8202C111.2 74.361 112.692 74.651 113.37 74.9512C113.845 75.1617 114.624 75.3811 115.074 75.6653C115.934 76.209 116.767 76.8561 117.574 77.4514C117.977 77.749 119.216 78.4016 119.278 78.9394Z" fill="white"/>
</g>
<defs>
<filter id="filter0_dd_307_8220" x="2.87904" y="12.0972" width="142.242" height="142.242" filterUnits="userSpaceOnUse" color-interpolation-filters="sRGB">
<feFlood flood-opacity="0" result="BackgroundImageFix"/>
<feColorMatrix in="SourceAlpha" type="matrix" values="0 0 0 0 0 0 0 0 0 0 0 0 0 0 0 0 0 0 127 0" result="hardAlpha"/>
<feOffset dy="9.12096"/>
<feGaussianBlur stdDeviation="4.56048"/>
<feComposite in2="hardAlpha" operator="out"/>
<feColorMatrix type="matrix" values="0 0 0 0 0 0 0 0 0 0.380392 0 0 0 0 0.541176 0 0 0 0.2 0"/>
<feBlend mode="normal" in2="BackgroundImageFix" result="effect1_dropShadow_307_8220"/>
<feColorMatrix in="SourceAlpha" type="matrix" values="0 0 0 0 0 0 0 0 0 0 0 0 0 0 0 0 0 0 127 0" result="hardAlpha"/>
<feOffset dy="9.12096"/>
<feGaussianBlur stdDeviation="4.56048"/>
<feComposite in2="hardAlpha" operator="out"/>
<feColorMatrix type="matrix" values="0 0 0 0 0 0 0 0 0 0.380392 0 0 0 0 0.541176 0 0 0 0.2 0"/>
<feBlend mode="normal" in2="effect1_dropShadow_307_8220" result="effect2_dropShadow_307_8220"/>
<feBlend mode="normal" in="SourceGraphic" in2="effect2_dropShadow_307_8220" result="shape"/>
</filter>
</defs>
</svg>
