<svg width="137" height="22" viewBox="0 0 137 22" fill="none" xmlns="http://www.w3.org/2000/svg">
<path d="M0.238281 17.1503L5.08803 0.176147H9.69529L14.5208 17.1503H11.8292L10.7137 13.1492H4.06958L2.95414 17.1503H0.238281ZM4.7243 10.7244H10.059L7.58565 1.80081H7.19767L4.7243 10.7244Z" fill="#111827"/>
<path d="M22.4462 17.4898C21.2984 17.4898 20.2557 17.2473 19.3181 16.7623C18.3966 16.2773 17.6611 15.5741 17.1114 14.6527C16.578 13.7312 16.3112 12.6238 16.3112 11.3306V11.0153C16.3112 9.72207 16.578 8.6228 17.1114 7.71751C17.6611 6.79606 18.3966 6.09284 19.3181 5.60787C20.2557 5.10673 21.2984 4.85616 22.4462 4.85616C23.5939 4.85616 24.572 5.06631 25.3803 5.48662C26.1885 5.90694 26.8352 6.46466 27.3202 7.15979C27.8213 7.85492 28.1446 8.6228 28.2901 9.46342L25.8652 9.97264C25.7844 9.43917 25.6147 8.9542 25.356 8.51772C25.0974 8.08124 24.7336 7.73368 24.2648 7.47502C23.796 7.21637 23.206 7.08704 22.4947 7.08704C21.7995 7.08704 21.1691 7.2487 20.6033 7.57202C20.0536 7.87917 19.6171 8.33181 19.2938 8.92995C18.9705 9.51192 18.8088 10.2232 18.8088 11.0638V11.2821C18.8088 12.1227 18.9705 12.8421 19.2938 13.4402C19.6171 14.0384 20.0536 14.491 20.6033 14.7981C21.1691 15.1053 21.7995 15.2589 22.4947 15.2589C23.5454 15.2589 24.3456 14.9921 24.8953 14.4587C25.4449 13.909 25.7925 13.2139 25.938 12.3733L28.3629 12.931C28.1689 13.7554 27.8213 14.5152 27.3202 15.2104C26.8352 15.9055 26.1885 16.4632 25.3803 16.8835C24.572 17.2877 23.5939 17.4898 22.4462 17.4898Z" fill="#111827"/>
<path d="M31.2435 17.1503V0.176147H33.7411V6.89305H34.1291C34.2908 6.5859 34.5171 6.28683 34.8081 5.99585C35.1152 5.70486 35.5113 5.47046 35.9963 5.29263C36.4974 5.09864 37.1279 5.00165 37.8877 5.00165C38.793 5.00165 39.5932 5.20372 40.2883 5.60787C40.9996 6.01201 41.5573 6.5859 41.9615 7.32953C42.3656 8.05699 42.5677 8.93803 42.5677 9.97264V17.1503H40.0701V10.1666C40.0701 9.13202 39.8114 8.37223 39.2941 7.88725C38.7768 7.38611 38.0655 7.13554 37.1602 7.13554C36.1256 7.13554 35.2931 7.47502 34.6626 8.15399C34.0483 8.83295 33.7411 9.81907 33.7411 11.1123V17.1503H31.2435Z" fill="#111827"/>
<path d="M50.3167 17.1503C49.5892 17.1503 49.0073 16.932 48.5708 16.4956C48.1505 16.0591 47.9403 15.4771 47.9403 14.7496V7.30528H44.6425V5.19564H47.9403V1.24309H50.4379V5.19564H54.0025V7.30528H50.4379V14.3132C50.4379 14.7981 50.6642 15.0406 51.1169 15.0406H53.6145V17.1503H50.3167Z" fill="#111827"/>
<path d="M61.9908 17.4898C60.7783 17.4898 59.7195 17.2392 58.8142 16.738C57.9089 16.2207 57.1976 15.5014 56.6803 14.5799C56.1791 13.6423 55.9286 12.5592 55.9286 11.3306V11.0396C55.9286 9.79482 56.1791 8.71171 56.6803 7.79026C57.1814 6.85264 57.8765 6.13326 58.7657 5.63212C59.671 5.11481 60.7137 4.85616 61.8938 4.85616C63.0415 4.85616 64.0438 5.11481 64.9006 5.63212C65.7736 6.13326 66.4525 6.83647 66.9375 7.74176C67.4225 8.64705 67.665 9.70591 67.665 10.9183V11.864H58.4747C58.507 12.9148 58.8546 13.7554 59.5174 14.3859C60.1964 15.0002 61.037 15.3074 62.0393 15.3074C62.9769 15.3074 63.6801 15.0972 64.1489 14.6769C64.6339 14.2566 65.0057 13.7716 65.2643 13.222L67.3255 14.2889C67.0992 14.7416 66.7678 15.2185 66.3313 15.7196C65.911 16.2207 65.3532 16.6411 64.6581 16.9805C63.963 17.32 63.0739 17.4898 61.9908 17.4898ZM58.4989 9.94839H65.1188C65.0542 9.04311 64.7309 8.33989 64.1489 7.83875C63.5669 7.32145 62.8071 7.06279 61.8695 7.06279C60.9319 7.06279 60.164 7.32145 59.5659 7.83875C58.9839 8.33989 58.6283 9.04311 58.4989 9.94839Z" fill="#111827"/>
<path d="M70.6714 17.1503V5.19564H73.1206V6.99005H73.5085C73.7348 6.50507 74.139 6.05243 74.721 5.63212C75.3029 5.21181 76.1678 5.00165 77.3156 5.00165C78.2209 5.00165 79.0211 5.20372 79.7162 5.60787C80.4275 6.01201 80.9852 6.5859 81.3894 7.32953C81.7935 8.05699 81.9956 8.93803 81.9956 9.97264V17.1503H79.498V10.1666C79.498 9.13202 79.2393 8.37223 78.722 7.88725C78.2047 7.38611 77.4934 7.13554 76.5881 7.13554C75.5535 7.13554 74.721 7.47502 74.0905 8.15399C73.4762 8.83295 73.169 9.81907 73.169 11.1123V17.1503H70.6714Z" fill="#111827"/>
<path d="M92.501 17.4898C91.3371 17.4898 90.4398 17.2796 89.8094 16.8593C89.1951 16.439 88.7344 15.9702 88.4272 15.4529H88.0392V17.1503H85.5901V0.176147H88.0877V6.82031H88.4757C88.6697 6.49699 88.9283 6.18984 89.2517 5.89885C89.575 5.5917 90.0034 5.34113 90.5368 5.14714C91.0703 4.95315 91.725 4.85616 92.501 4.85616C93.5033 4.85616 94.4247 5.09864 95.2654 5.58362C96.106 6.06859 96.7768 6.77181 97.278 7.69326C97.7791 8.61471 98.0297 9.71399 98.0297 10.9911V11.3548C98.0297 12.6481 97.771 13.7554 97.2537 14.6769C96.7526 15.5822 96.0817 16.2773 95.2411 16.7623C94.4166 17.2473 93.5033 17.4898 92.501 17.4898ZM91.7735 15.3074C92.8566 15.3074 93.7458 14.9598 94.4409 14.2647C95.1522 13.5695 95.5078 12.5753 95.5078 11.2821V11.0638C95.5078 9.78674 95.1603 8.80062 94.4651 8.10549C93.77 7.41036 92.8728 7.06279 91.7735 7.06279C90.7066 7.06279 89.8175 7.41036 89.1062 8.10549C88.411 8.80062 88.0635 9.78674 88.0635 11.0638V11.2821C88.0635 12.5753 88.411 13.5695 89.1062 14.2647C89.8175 14.9598 90.7066 15.3074 91.7735 15.3074Z" fill="#111827"/>
<path d="M106.605 17.4898C105.392 17.4898 104.333 17.2392 103.428 16.738C102.523 16.2207 101.812 15.5014 101.294 14.5799C100.793 13.6423 100.542 12.5592 100.542 11.3306V11.0396C100.542 9.79482 100.793 8.71171 101.294 7.79026C101.795 6.85264 102.49 6.13326 103.38 5.63212C104.285 5.11481 105.328 4.85616 106.508 4.85616C107.655 4.85616 108.658 5.11481 109.515 5.63212C110.387 6.13326 111.066 6.83647 111.551 7.74176C112.036 8.64705 112.279 9.70591 112.279 10.9183V11.864H103.089C103.121 12.9148 103.468 13.7554 104.131 14.3859C104.81 15.0002 105.651 15.3074 106.653 15.3074C107.591 15.3074 108.294 15.0972 108.763 14.6769C109.248 14.2566 109.62 13.7716 109.878 13.222L111.939 14.2889C111.713 14.7416 111.382 15.2185 110.945 15.7196C110.525 16.2207 109.967 16.6411 109.272 16.9805C108.577 17.32 107.688 17.4898 106.605 17.4898ZM103.113 9.94839H109.733C109.668 9.04311 109.345 8.33989 108.763 7.83875C108.181 7.32145 107.421 7.06279 106.483 7.06279C105.546 7.06279 104.778 7.32145 104.18 7.83875C103.598 8.33989 103.242 9.04311 103.113 9.94839Z" fill="#111827"/>
<path d="M115.285 17.1503V5.19564H117.734V6.60207H118.122C118.316 6.10093 118.624 5.7372 119.044 5.51087C119.48 5.26839 120.014 5.14714 120.644 5.14714H122.075V7.40228H120.547C119.739 7.40228 119.076 7.6286 118.559 8.08124C118.042 8.51772 117.783 9.19668 117.783 10.1181V17.1503H115.285Z" fill="#111827"/>
<path d="M123.655 11.2336V10.8698C123.655 9.60891 123.905 8.53389 124.406 7.64476C124.924 6.75564 125.603 6.06859 126.443 5.58362C127.284 5.09864 128.205 4.85616 129.208 4.85616C130.371 4.85616 131.261 5.0744 131.875 5.51087C132.505 5.94735 132.966 6.41616 133.257 6.9173H133.645V5.19564H136.07V19.5994C136.07 20.3269 135.852 20.9088 135.415 21.3453C134.995 21.7818 134.413 22 133.669 22H125.619V19.8176H132.893C133.362 19.8176 133.597 19.5751 133.597 19.0902V15.2831H133.209C133.031 15.5741 132.78 15.8732 132.457 16.1803C132.134 16.4875 131.705 16.738 131.172 16.932C130.654 17.126 130 17.223 129.208 17.223C128.205 17.223 127.276 16.9886 126.419 16.5198C125.578 16.0348 124.907 15.3478 124.406 14.4587C123.905 13.5534 123.655 12.4783 123.655 11.2336ZM129.887 15.0406C130.97 15.0406 131.859 14.7011 132.554 14.0222C133.265 13.3271 133.621 12.3733 133.621 11.1608V10.9426C133.621 9.69783 133.273 8.74404 132.578 8.08124C131.883 7.40228 130.986 7.06279 129.887 7.06279C128.82 7.06279 127.93 7.40228 127.219 8.08124C126.524 8.74404 126.176 9.69783 126.176 10.9426V11.1608C126.176 12.3733 126.524 13.3271 127.219 14.0222C127.93 14.7011 128.82 15.0406 129.887 15.0406Z" fill="#111827"/>
</svg>
