<svg width="44" height="31" viewBox="0 0 44 31" fill="none" xmlns="http://www.w3.org/2000/svg">
<path d="M3.09289 27.6754H0.181641V11.7835H2.96631V14.3781H3.09289C3.38823 13.5349 3.98946 12.8214 4.8966 12.2376C5.82481 11.6322 6.73195 11.3295 7.61798 11.3295C8.46183 11.3295 9.17908 11.4592 9.76978 11.7187L8.88374 14.6051C8.52512 14.4538 7.95553 14.3781 7.17497 14.3781C6.07797 14.3781 5.11811 14.8322 4.29536 15.7403C3.49372 16.6484 3.09289 17.7079 3.09289 18.9187V27.6754ZM8.90748 22.8106C8.90748 23.5889 9.22392 24.2376 9.8568 24.7565C10.5108 25.2754 11.2702 25.5349 12.1352 25.5349C13.3587 25.5349 14.4452 25.07 15.3945 24.1403C16.3649 23.2105 16.8501 22.1187 16.8501 20.8646C15.943 20.1295 14.6772 19.7619 13.0528 19.7619C11.8715 19.7619 10.8799 20.0538 10.0783 20.6376C9.29774 21.2214 8.90748 21.9457 8.90748 22.8106ZM12.6731 11.2646C14.8249 11.2646 16.5231 11.8592 17.7678 13.0484C19.0125 14.216 19.6348 15.8268 19.6348 17.8808V27.6754H16.8501V25.47H16.7235C15.5211 27.2862 13.9178 28.1943 11.9137 28.1943C10.2049 28.1943 8.77036 27.6754 7.61007 26.6376C6.47089 25.5997 5.9013 24.3024 5.9013 22.7457C5.9013 21.1024 6.50253 19.7943 7.705 18.8214C8.92858 17.8484 10.553 17.3619 12.5782 17.3619C14.3081 17.3619 15.732 17.6862 16.8501 18.3349V17.6538C16.8501 16.616 16.4493 15.7403 15.6477 15.0268C14.846 14.2916 13.9072 13.9241 12.8313 13.9241C11.207 13.9241 9.92008 14.6268 8.97077 16.0322L6.4076 14.3781C7.82104 12.3024 9.90954 11.2646 12.6731 11.2646ZM25.798 4.19434C26.8527 4.19434 27.7178 4.37812 28.3928 4.74569L27.6017 7.37272C27.0954 7.11326 26.5258 6.98353 25.8929 6.98353C25.1755 6.98353 24.585 7.24299 24.1208 7.7619C23.6778 8.25919 23.4563 8.92947 23.4563 9.77272V11.7835H27.5067V14.5079H23.4563V27.6754H20.545V14.5079H17.6338V11.7835H20.545V9.48082C20.545 7.90244 21.0303 6.62677 22.0007 5.6538C22.9922 4.68082 24.258 4.19434 25.798 4.19434ZM24.1893 19.7295C24.1893 17.2862 24.9382 15.2646 26.4359 13.6646C27.9549 12.0646 29.8642 11.2646 32.1635 11.2646C34.4631 11.2646 36.3617 12.0646 37.8594 13.6646C39.3783 15.2646 40.1378 17.2862 40.1378 19.7295C40.1378 22.1943 39.3783 24.2159 37.8594 25.7943C36.3617 27.3943 34.4631 28.1943 32.1635 28.1943C29.8642 28.1943 27.9549 27.3943 26.4359 25.7943C24.9382 24.1943 24.1893 22.1727 24.1893 19.7295ZM27.1005 19.7295C27.1005 21.4376 27.5858 22.8214 28.5561 23.8808C29.5266 24.9403 30.7291 25.47 32.1635 25.47C33.5982 25.47 34.8007 24.9403 35.7709 23.8808C36.7414 22.8214 37.2266 21.4376 37.2266 19.7295C37.2266 18.043 36.7414 16.67 35.7709 15.6106C34.7795 14.5295 33.577 13.9889 32.1635 13.9889C30.7502 13.9889 29.5478 14.5295 28.5561 15.6106C27.5858 16.67 27.1005 18.043 27.1005 19.7295ZM43.818 25.6646C43.818 26.27 43.607 26.7889 43.1851 27.2214C42.7842 27.6538 42.2779 27.87 41.6662 27.87C41.0754 27.87 40.5691 27.6538 40.1473 27.2214C39.7255 26.7889 39.5144 26.27 39.5144 25.6646C39.5144 25.0376 39.7255 24.5187 40.1473 24.1078C40.5691 23.6754 41.0754 23.4592 41.6662 23.4592C42.2779 23.4592 42.7842 23.6754 43.1851 24.1078C43.607 24.5187 43.818 25.0376 43.818 25.6646Z" fill="#F9FAFB"/>
</svg>
