<svg width="148" height="155" viewBox="0 0 148 155" fill="none" xmlns="http://www.w3.org/2000/svg">
<rect y="0.097168" width="148" height="148" rx="41.0443" fill="#F0F9FF"/>
<g filter="url(#filter0_dd_307_8206)">
<rect x="12" y="12.0972" width="124" height="124" rx="41.0443" fill="#38BDF8" shape-rendering="crispEdges"/>
<path d="M115.892 74.1059C115.892 68.4966 108.941 63.1808 98.2845 59.8843C100.744 48.9074 99.6507 40.1743 94.8347 37.3783C93.7247 36.7225 92.4268 36.4118 91.0093 36.4118V40.2606C91.7949 40.2606 92.4268 40.4159 92.9562 40.7093C95.2788 42.0555 96.2864 47.1815 95.5008 53.7745C95.3129 55.3969 95.0055 57.1056 94.6298 58.8487C91.2826 58.0203 87.6279 57.3817 83.7854 56.9675C81.4799 53.7745 79.089 50.875 76.681 48.3379C82.2484 43.1084 87.4742 40.2433 91.0264 40.2433V36.3945C86.33 36.3945 80.182 39.7773 73.9656 45.6455C67.7493 39.8119 61.6013 36.4636 56.9049 36.4636V40.3124C60.44 40.3124 65.6829 43.1601 71.2503 48.3552C68.8594 50.8923 66.4685 53.7745 64.1971 56.9675C60.3375 57.3817 56.6829 58.0203 53.3356 58.866C52.9429 57.1401 52.6525 55.4659 52.4476 53.8608C51.6449 47.2678 52.6354 42.1418 54.941 40.7784C55.4533 40.4677 56.1193 40.3296 56.9049 40.3296V36.4808C55.4704 36.4808 54.1725 36.7915 53.0453 37.4473C48.2464 40.2433 47.1705 48.9592 49.6468 59.9015C39.0244 63.2153 32.1079 68.5139 32.1079 74.1059C32.1079 79.7151 39.0586 85.0309 49.7151 88.3274C47.2559 99.3043 48.3489 108.037 53.1649 110.833C54.2749 111.489 55.5728 111.8 57.0074 111.8C61.7038 111.8 67.8518 108.417 74.0681 102.549C80.2844 108.383 86.4325 111.731 91.1289 111.731C92.5634 111.731 93.8613 111.42 94.9884 110.764C99.7873 107.968 100.863 99.2525 98.3869 88.3102C108.975 85.0137 115.892 79.6978 115.892 74.1059ZM93.6564 62.594C93.0245 64.8204 92.2389 67.1159 91.3509 69.4114C90.6507 68.0306 89.9163 66.6499 89.1137 65.2692C88.3281 63.8884 87.4913 62.5422 86.6545 61.2305C89.0795 61.5929 91.4192 62.0417 93.6564 62.594ZM85.8347 80.975C84.5027 83.305 83.1364 85.5142 81.719 87.568C79.1744 87.7924 76.5956 87.9132 73.9998 87.9132C71.4211 87.9132 68.8423 87.7924 66.3148 87.5853C64.8973 85.5314 63.514 83.3395 62.1819 81.0268C60.884 78.7658 59.7057 76.4704 58.6298 74.1576C59.6886 71.8449 60.884 69.5322 62.1649 67.2712C63.4969 64.9412 64.8632 62.7321 66.2806 60.6782C68.8252 60.4538 71.404 60.333 73.9998 60.333C76.5786 60.333 79.1573 60.4538 81.6848 60.661C83.1023 62.7148 84.4856 64.9067 85.8177 67.2194C87.1156 69.4804 88.2939 71.7759 89.3698 74.0886C88.2939 76.4013 87.1156 78.7141 85.8347 80.975ZM91.3509 78.7313C92.2731 81.0441 93.0587 83.3568 93.7076 85.6005C91.4704 86.1528 89.1137 86.6188 86.6715 86.9812C87.5084 85.6523 88.3452 84.2888 89.1308 82.8908C89.9163 81.5101 90.6507 80.1121 91.3509 78.7313ZM74.034 97.1469C72.4457 95.49 70.8575 93.6433 69.2863 91.6239C70.8233 91.693 72.3945 91.7448 73.9827 91.7448C75.588 91.7448 77.1763 91.7102 78.7304 91.6239C77.1934 93.6433 75.6051 95.49 74.034 97.1469ZM61.3281 86.9812C58.903 86.6188 56.5633 86.17 54.3262 85.6177C54.958 83.3913 55.7436 81.0958 56.6317 78.8004C57.3318 80.1811 58.0662 81.5618 58.8689 82.9426C59.6715 84.3233 60.4912 85.6695 61.3281 86.9812ZM73.9486 51.0648C75.5368 52.7217 77.125 54.5685 78.6962 56.5878C77.1592 56.5187 75.588 56.467 73.9998 56.467C72.3945 56.467 70.8063 56.5015 69.2522 56.5878C70.7892 54.5685 72.3774 52.7217 73.9486 51.0648ZM61.311 61.2305C60.4742 62.5595 59.6374 63.9229 58.8518 65.3209C58.0662 66.7017 57.3318 68.0824 56.6317 69.4631C55.7095 67.1504 54.9239 64.8377 54.2749 62.594C56.5121 62.0589 58.8689 61.5929 61.311 61.2305ZM45.8556 82.839C39.81 80.2329 35.8992 76.8156 35.8992 74.1059C35.8992 71.3962 39.81 67.9616 45.8556 65.3727C47.3243 64.7341 48.9296 64.1646 50.5861 63.6295C51.5595 67.0123 52.8404 70.5332 54.4286 74.1404C52.8575 77.7303 51.5937 81.2339 50.6373 84.5994C48.9466 84.0644 47.3413 83.4776 45.8556 82.839ZM55.0434 107.502C52.7208 106.156 51.7132 101.03 52.4988 94.4372C52.6867 92.8148 52.9941 91.1062 53.3698 89.363C56.7171 90.1914 60.3717 90.83 64.2142 91.2442C66.5197 94.4372 68.9106 97.3367 71.3186 99.8738C65.7512 105.103 60.5254 107.968 56.9732 107.968C56.2047 107.951 55.5558 107.796 55.0434 107.502ZM95.552 94.3509C96.3547 100.944 95.3642 106.07 93.0586 107.433C92.5463 107.744 91.8803 107.882 91.0947 107.882C87.5596 107.882 82.3167 105.034 76.7493 99.8393C79.1402 97.3022 81.5311 94.4199 83.8025 91.227C87.6621 90.8128 91.3167 90.1742 94.664 89.3285C95.0568 91.0716 95.3642 92.7458 95.552 94.3509ZM102.127 82.839C100.658 83.4776 99.053 84.0472 97.3964 84.5822C96.423 81.1994 95.1421 77.6785 93.5539 74.0713C95.1251 70.4814 96.3888 66.9778 97.3452 63.6123C99.0359 64.1473 100.641 64.7341 102.144 65.3727C108.19 67.9788 112.1 71.3962 112.1 74.1059C112.083 76.8156 108.173 80.2501 102.127 82.839Z" fill="white"/>
<path d="M73.9818 81.9929C78.2922 81.9929 81.7864 78.4616 81.7864 74.1055C81.7864 69.7493 78.2922 66.218 73.9818 66.218C69.6715 66.218 66.1772 69.7493 66.1772 74.1055C66.1772 78.4616 69.6715 81.9929 73.9818 81.9929Z" fill="white"/>
</g>
<defs>
<filter id="filter0_dd_307_8206" x="2.87904" y="12.0972" width="142.242" height="142.242" filterUnits="userSpaceOnUse" color-interpolation-filters="sRGB">
<feFlood flood-opacity="0" result="BackgroundImageFix"/>
<feColorMatrix in="SourceAlpha" type="matrix" values="0 0 0 0 0 0 0 0 0 0 0 0 0 0 0 0 0 0 127 0" result="hardAlpha"/>
<feOffset dy="9.12096"/>
<feGaussianBlur stdDeviation="4.56048"/>
<feComposite in2="hardAlpha" operator="out"/>
<feColorMatrix type="matrix" values="0 0 0 0 0.027451 0 0 0 0 0.494118 0 0 0 0 0.854902 0 0 0 0.2 0"/>
<feBlend mode="normal" in2="BackgroundImageFix" result="effect1_dropShadow_307_8206"/>
<feColorMatrix in="SourceAlpha" type="matrix" values="0 0 0 0 0 0 0 0 0 0 0 0 0 0 0 0 0 0 127 0" result="hardAlpha"/>
<feOffset dy="9.12096"/>
<feGaussianBlur stdDeviation="4.56048"/>
<feComposite in2="hardAlpha" operator="out"/>
<feColorMatrix type="matrix" values="0 0 0 0 0.0313726 0 0 0 0 0.639216 0 0 0 0 0.901961 0 0 0 0.1 0"/>
<feBlend mode="normal" in2="effect1_dropShadow_307_8206" result="effect2_dropShadow_307_8206"/>
<feBlend mode="normal" in="SourceGraphic" in2="effect2_dropShadow_307_8206" result="shape"/>
</filter>
</defs>
</svg>
